<svg width="32" height="32" viewBox="0 0 32 32" fill="none" xmlns="http://www.w3.org/2000/svg">
<path fill-rule="evenodd" clip-rule="evenodd" d="M6.66667 4H25.3333C26.8061 4 28 5.19391 28 6.66667V25.3333C28 26.8061 26.8061 28 25.3333 28H6.66667C5.19391 28 4 26.8061 4 25.3333V6.66667C4 5.19391 5.19391 4 6.66667 4ZM10.6667 24C11.0349 24 11.3333 23.7015 11.3333 23.3333V14C11.3333 13.6319 11.0349 13.3333 10.6667 13.3333H8.66667C8.29848 13.3333 8 13.6319 8 14V23.3333C8 23.7015 8.29848 24 8.66667 24H10.6667ZM9.66667 12C8.56209 12 7.66667 11.1046 7.66667 10C7.66667 8.89543 8.56209 8 9.66667 8C10.7712 8 11.6667 8.89543 11.6667 10C11.6667 11.1046 10.7712 12 9.66667 12ZM23.3333 24C23.7015 24 24 23.7015 24 23.3333V17.2C24.0433 15.0811 22.4768 13.2727 20.3733 13.0133C18.9027 12.879 17.4777 13.5659 16.6667 14.8V14C16.6667 13.6319 16.3681 13.3333 16 13.3333H14C13.6319 13.3333 13.3333 13.6319 13.3333 14V23.3333C13.3333 23.7015 13.6319 24 14 24H16C16.3681 24 16.6667 23.7015 16.6667 23.3333V18.3333C16.6667 17.2288 17.5621 16.3333 18.6667 16.3333C19.7712 16.3333 20.6667 17.2288 20.6667 18.3333V23.3333C20.6667 23.7015 20.9652 24 21.3333 24H23.3333Z" fill="#292929"/>
</svg>
