<svg width="32" height="32" viewBox="0 0 32 32" fill="none" xmlns="http://www.w3.org/2000/svg">
<path d="M23.2512 5.21872L18.2359 12.6667C18.1545 12.7742 18.117 12.9085 18.1307 13.0426C18.1443 13.1767 18.2083 13.3006 18.3095 13.3895C18.4109 13.4783 18.542 13.5255 18.6766 13.5215C18.8113 13.5176 18.9394 13.4627 19.0353 13.368L23.9707 9.10135C23.9992 9.07524 24.0346 9.05806 24.0728 9.05193C24.1109 9.04585 24.15 9.05105 24.1852 9.06694C24.2204 9.08283 24.2501 9.10876 24.2707 9.14142C24.2913 9.17407 24.3019 9.21204 24.3011 9.25071V22.6614C24.3007 22.7021 24.2879 22.7417 24.2644 22.7749C24.2409 22.8082 24.2078 22.8334 24.1696 22.8473C24.1313 22.8613 24.0898 22.8631 24.0504 22.8528C24.0111 22.8425 23.9758 22.8203 23.9494 22.7894L9.02599 4.92268C8.78771 4.63587 8.48965 4.40462 8.15271 4.24527C7.81572 4.08586 7.44797 4.00216 7.07525 4.00005H6.55561C5.87783 4.00005 5.22778 4.26945 4.74853 4.74908C4.26922 5.22865 4 5.87913 4 6.55736V25.4427C4 26.1209 4.26922 26.7714 4.74853 27.251C5.22778 27.7306 5.87783 28 6.55561 28C6.99236 27.9999 7.42176 27.8879 7.80294 27.6746C8.18406 27.4612 8.50424 27.1537 8.73283 26.7813L13.7481 19.3334C13.8295 19.2258 13.867 19.0915 13.8533 18.9574C13.8397 18.8234 13.7758 18.6994 13.6745 18.6105C13.5731 18.5217 13.442 18.4745 13.3074 18.4785C13.1727 18.4825 13.0446 18.5373 12.9487 18.632L8.01332 22.8987C7.98483 22.9248 7.94934 22.942 7.91122 22.9481C7.8731 22.9542 7.83405 22.949 7.79885 22.9331C7.76365 22.9172 7.73394 22.8913 7.71334 22.8586C7.69267 22.826 7.68211 22.788 7.68286 22.7493V9.35199C7.68327 9.31128 7.69606 9.27168 7.71958 9.23844C7.74311 9.2052 7.7762 9.17997 7.81444 9.16601C7.85267 9.15211 7.89424 9.15024 7.93358 9.16058C7.97292 9.17092 8.00818 9.19305 8.03463 9.22401L22.958 27.0907C23.1981 27.3749 23.4973 27.6033 23.8346 27.7599C24.172 27.9165 24.5395 27.9975 24.9114 27.9973H25.4444C25.78 27.9973 26.1123 27.9312 26.4224 27.8027C26.7324 27.6742 27.0142 27.4858 27.2515 27.2483C27.4888 27.0108 27.677 26.7289 27.8055 26.4187C27.9339 26.1084 28 25.7758 28 25.44V6.55736C28 6.2202 27.9334 5.88631 27.804 5.57497C27.6745 5.26369 27.4849 4.98103 27.2458 4.74335C27.0068 4.50567 26.7232 4.31764 26.4113 4.19007C26.0994 4.0625 25.7653 3.99789 25.4284 4.00005C24.9916 4.00005 24.5622 4.11215 24.1811 4.32547C23.7999 4.53879 23.4798 4.84633 23.2512 5.21872Z" fill="#292929"/>
</svg>
