<svg width="32" height="32" viewBox="0 0 32 32" fill="none" xmlns="http://www.w3.org/2000/svg">
<path d="M27.9639 8.95654C27.3447 9.78256 26.5962 10.5031 25.7472 11.0903C25.7472 11.3061 25.7472 11.5219 25.7472 11.7497C25.754 15.6681 24.1888 19.4255 21.4026 22.1793C18.6162 24.9332 14.8418 26.4532 10.9256 26.3985C8.66149 26.4061 6.42639 25.8892 4.39539 24.8881C4.28587 24.8403 4.21525 24.732 4.21566 24.6124V24.4805C4.21566 24.3084 4.35514 24.1689 4.52719 24.1689C6.75273 24.0955 8.89886 23.3239 10.662 21.9632C8.64754 21.9225 6.83509 20.7292 6.00097 18.8943C5.95885 18.7941 5.97195 18.6791 6.03559 18.5909C6.09922 18.5028 6.20417 18.4543 6.3125 18.4628C6.92473 18.5243 7.54307 18.4673 8.13377 18.2949C5.91002 17.8333 4.23911 15.9872 3.99998 13.7276C3.99149 13.6192 4.04006 13.5143 4.12817 13.4505C4.21626 13.3869 4.33115 13.3737 4.43134 13.416C5.02809 13.6793 5.67229 13.818 6.32449 13.8235C4.37595 12.5446 3.53431 10.1121 4.27557 7.90163C4.35209 7.68684 4.53591 7.52816 4.7595 7.48392C4.98307 7.43967 5.21345 7.51638 5.36593 7.68586C7.99535 10.4843 11.6082 12.1519 15.4427 12.3371C15.3446 11.9451 15.2963 11.5423 15.299 11.1383C15.3348 9.01963 16.6458 7.13228 18.618 6.35983C20.5902 5.58739 22.8334 6.08271 24.2975 7.61392C25.2954 7.4238 26.2602 7.0886 27.1611 6.61895C27.2271 6.57775 27.3108 6.57775 27.3768 6.61895C27.418 6.68498 27.418 6.7687 27.3768 6.83472C26.9404 7.83403 26.2032 8.67216 25.268 9.23226C26.087 9.13728 26.8915 8.9441 27.6644 8.65686C27.7295 8.61256 27.815 8.61256 27.88 8.65686C27.9346 8.68179 27.9754 8.72948 27.9915 8.78723C28.0076 8.84498 27.9975 8.90691 27.9639 8.95654Z" fill="#292929"/>
</svg>
