<svg width="48" height="48" viewBox="0 0 48 48" fill="none" xmlns="http://www.w3.org/2000/svg">
<g clip-path="url(#clip0_26_231)">
<path d="M45.464 18.026C44.7099 17.3387 43.8278 16.8067 42.868 16.4605C41.9083 16.1143 40.8897 15.9607 39.8705 16.0084C38.8513 16.0562 37.8515 16.3043 36.9283 16.7387C36.0051 17.1731 35.1765 17.7852 34.49 18.54L29.614 23.898C28.2751 22.6755 26.5271 21.9984 24.714 22H7C5.14348 22 3.36301 22.7375 2.05025 24.0503C0.737498 25.363 0 27.1435 0 29L0 41C0 42.8565 0.737498 44.637 2.05025 45.9497C3.36301 47.2625 5.14348 48 7 48H29.362L46.03 28.936C47.3831 27.4056 48.0818 25.4054 47.976 23.3654C47.8701 21.3253 46.9682 19.4082 45.464 18.026ZM41.534 24.964L26.638 42H7C6.73478 42 6.48043 41.8946 6.29289 41.7071C6.10536 41.5196 6 41.2652 6 41V29C6 28.7348 6.10536 28.4804 6.29289 28.2929C6.48043 28.1054 6.73478 28 7 28H24.714C25.0401 27.9977 25.3549 28.1196 25.5945 28.3409C25.834 28.5623 25.9804 28.8665 26.0038 29.1918C26.0272 29.5171 25.9259 29.8391 25.7206 30.0925C25.5152 30.3459 25.2211 30.5116 24.898 30.556L14.576 32.03L15.424 37.97L25.748 36.496C27.3137 36.2643 28.7624 35.5321 29.8774 34.4088C30.9925 33.2855 31.714 31.8314 31.934 30.264L38.934 22.578C39.0901 22.4063 39.2785 22.267 39.4884 22.1681C39.6984 22.0692 39.9257 22.0126 40.1575 22.0017C40.3894 21.9907 40.621 22.0256 40.8394 22.1042C41.0577 22.1828 41.2584 22.3037 41.43 22.46C41.774 22.7794 41.9779 23.2216 41.9974 23.6906C42.0168 24.1596 41.8503 24.6172 41.534 24.964ZM14 4.95C13.9429 3.69751 14.3844 2.47343 15.2278 1.5457C16.0712 0.61797 17.2478 0.0621824 18.5 0C19.7522 0.0621824 20.9288 0.61797 21.7722 1.5457C22.6156 2.47343 23.0571 3.69751 23 4.95C22.9429 3.69751 23.3844 2.47343 24.2278 1.5457C25.0712 0.61797 26.2478 0.0621824 27.5 0C28.7522 0.0621824 29.9288 0.61797 30.7722 1.5457C31.6156 2.47343 32.0571 3.69751 32 4.95C32 10.134 23 16.5 23 16.5C23 16.5 14 10.134 14 4.95Z" fill="white"/>
</g>
<defs>
<clipPath id="clip0_26_231">
<rect width="48" height="48" fill="white"/>
</clipPath>
</defs>
</svg>
