<svg width="48" height="48" viewBox="0 0 48 48" fill="none" xmlns="http://www.w3.org/2000/svg">
<g clip-path="url(#clip0_26_237)">
<path d="M32 5C32 2.24 34.24 0 37 0C39.76 0 42 2.24 42 5C42 7.76 39.76 10 37 10C34.24 10 32 7.76 32 5ZM39 12C37.34 12 36 13.34 36 15C36 16.66 37.34 18 39 18C40.66 18 42 19.34 42 21V27C42 28.66 40.66 30 39 30H37C33.14 30 30 33.14 30 37V45C30 46.66 31.34 48 33 48C34.66 48 36 46.66 36 45V37C36 36.44 36.44 36 37 36H38V45C38 46.66 39.34 48 41 48C42.66 48 44 46.66 44 45V34.48C46.42 32.86 48 30.12 48 27V21C48 16.04 43.96 12 39 12ZM36.18 24.18C36.84 23.52 36.84 22.46 36.18 21.8L30.86 16.48C29.8 15.42 28 16.18 28 17.66V19.98H20V17.66C20 16.16 18.18 15.42 17.14 16.48L11.82 21.8C11.16 22.46 11.16 23.52 11.82 24.18L17.14 29.5C18.2 30.56 20 29.8 20 28.32V26H28V28.32C28 29.82 29.82 30.56 30.86 29.5L36.18 24.18ZM11 10C13.76 10 16 7.76 16 5C16 2.24 13.76 0 11 0C8.24 0 6 2.24 6 5C6 7.76 8.24 10 11 10ZM11 30H9C7.34 30 6 28.66 6 27V21C6 19.34 7.34 18 9 18C10.66 18 12 16.66 12 15C12 13.34 10.66 12 9 12C4.04 12 0 16.04 0 21V27C0 30.12 1.58 32.86 4 34.48V45C4 46.66 5.34 48 7 48C8.66 48 10 46.66 10 45V36H11C11.56 36 12 36.44 12 37V45C12 46.66 13.34 48 15 48C16.66 48 18 46.66 18 45V37C18 33.14 14.86 30 11 30Z" fill="white"/>
</g>
<defs>
<clipPath id="clip0_26_237">
<rect width="48" height="48" fill="white"/>
</clipPath>
</defs>
</svg>
