<svg width="32" height="48" viewBox="0 0 32 48" fill="none" xmlns="http://www.w3.org/2000/svg">
<path d="M30.284 47.9799C30.188 47.9939 30.092 47.9999 29.998 47.9999C29.02 47.9999 28.164 47.2819 28.022 46.2839C27.184 40.4199 22.016 35.9999 16.002 35.9999C9.98796 35.9999 4.81996 40.4199 3.98196 46.2839C3.82396 47.3779 2.80396 48.1279 1.71996 47.9819C0.625958 47.8259 -0.134042 46.8119 0.0239576 45.7179C1.14196 37.8979 8.01196 32.0019 16.004 32.0019C23.996 32.0019 30.866 37.8979 31.984 45.7179C32.142 46.8119 31.382 47.8259 30.288 47.9819L30.284 47.9799ZM3.99996 15.9999V1.52791C3.99996 0.0199082 5.95596 -0.574092 6.79396 0.681908L9.99996 5.99991L14.594 0.639908C15.334 -0.222092 16.668 -0.222092 17.406 0.639908L22 5.99991L25.206 0.681908C26.044 -0.574092 28 0.0199082 28 1.52791V15.9999C28 22.6179 22.618 27.9999 16 27.9999C9.38196 27.9999 3.99996 22.6179 3.99996 15.9999ZM7.99996 13.9999V15.9999C7.99996 20.4119 11.588 23.9999 16 23.9999C20.412 23.9999 24 20.4119 24 15.9999V13.9999H7.99996Z" fill="white"/>
</svg>
