<svg width="36" height="28" viewBox="0 0 36 28" fill="none" xmlns="http://www.w3.org/2000/svg">
<path d="M12.0035 14.225C10.6745 12.896 10.6745 10.769 11.981 9.461L14.5025 6.9395C15.089 6.353 16.037 6.353 16.6235 6.9395C17.21 7.526 17.21 8.474 16.6235 9.0605L14.102 11.582C13.964 11.72 13.964 11.9435 14.102 12.0815L16.538 14.417C17.135 14.99 17.156 15.941 16.5815 16.538C16.2875 16.8455 15.893 17 15.4985 17C15.125 17 14.75 16.862 14.4605 16.583L12.0035 14.225ZM22.8965 11.582C23.0345 11.72 23.0345 11.9435 22.919 12.059L20.462 14.417C19.865 14.99 19.844 15.941 20.4185 16.538C20.7125 16.8455 21.107 17 21.5015 17C21.875 17 22.25 16.862 22.5395 16.583L25.019 14.204C26.327 12.896 26.327 10.769 25.019 9.4625L22.4975 6.941C21.911 6.3545 20.963 6.3545 20.3765 6.941C19.79 7.5275 19.79 8.4755 20.3765 9.062L22.898 11.5835L22.8965 11.582ZM36.5 23C36.5 25.481 34.481 27.5 32 27.5H5C2.519 27.5 0.5 25.481 0.5 23C0.5 21.044 1.754 19.3775 3.5 18.758V8C3.5 3.8645 6.8645 0.5 11 0.5H26C30.1355 0.5 33.5 3.8645 33.5 8V18.758C35.246 19.3775 36.5 21.044 36.5 23ZM6.5 8V18.5H13.25C13.6475 18.5 14.03 18.6575 14.3105 18.9395L15.371 20H21.629L22.6895 18.9395C22.9715 18.6575 23.3525 18.5 23.75 18.5H30.5V8C30.5 5.519 28.481 3.5 26 3.5H11C8.519 3.5 6.5 5.519 6.5 8ZM33.5 23C33.5 22.1735 32.8265 21.5 32 21.5H24.371L23.3105 22.5605C23.0285 22.8425 22.6475 23 22.25 23H14.75C14.3525 23 13.97 22.8425 13.6895 22.5605L12.629 21.5H5C4.1735 21.5 3.5 22.1735 3.5 23C3.5 23.8265 4.1735 24.5 5 24.5H32C32.8265 24.5 33.5 23.8265 33.5 23Z" fill="#1D263A"/>
</svg>
