<svg width="36" height="37" viewBox="0 0 36 37" fill="none" xmlns="http://www.w3.org/2000/svg">
<path d="M21 11.57C21 11.105 20.67 10.715 20.22 10.64L15.3 9.815C13.395 9.5 12.015 7.865 12.015 5.93C12.015 3.755 13.785 2 15.945 2H16.515V0.5H19.515V2C21.99 2 24.015 4.025 24.015 6.5H21.015C21.015 5.675 20.34 5 19.515 5H15.945C15.435 5 15.015 5.42 15.015 5.93C15.015 6.395 15.345 6.785 15.795 6.86L20.715 7.685C22.62 8 24 9.635 24 11.57C24 13.745 22.23 15.5 20.07 15.5H19.5V17H16.5V15.5C14.025 15.5 12 13.475 12 11H15C15 11.825 15.675 12.5 16.5 12.5H20.07C20.58 12.5 21 12.08 21 11.57ZM31.86 6.53C29.91 6.725 28.5 8.525 28.5 10.475V15.65C26.64 15.245 24.63 15.74 23.19 17.18L18 22.37L12.93 17.3C11.445 15.815 9.39 15.245 7.5 15.65V10.46C7.5 8.495 6.09 6.71 4.14 6.515C1.89 6.29 0 8.045 0 10.25V31.43L5.07 36.5H11.43L4.5 29.57V25.04L9.495 30.02L12.66 26.825L7.68 21.89C7.53 21.635 7.47 21.35 7.515 21.05C7.545 20.81 7.68 20.48 8.04 20.21C8.52 19.88 9.27 20 9.75 20.48L15.405 26.135C16.11 26.84 16.5 27.785 16.5 28.79V36.5H21V28.79C21 27.89 20.82 27.02 20.55 26.195L26.385 20.36C26.865 19.88 27.66 19.88 28.14 20.36C28.545 20.765 28.62 21.395 28.32 21.89L23.34 26.825L26.505 30.02L31.5 25.07V29.57L24.57 36.5H30.93L36 31.43V10.25C36 8.06 34.095 6.29 31.86 6.515V6.53Z" fill="#1D263A"/>
</svg>
