<svg width="36" height="36" viewBox="0 0 36 36" fill="none" xmlns="http://www.w3.org/2000/svg">
<path d="M34.4147 5.571C33.4052 4.713 32.0717 4.3455 30.7562 4.56C30.4322 4.6125 30.1247 4.713 29.8292 4.836C29.3132 2.9205 27.5777 1.5 25.5002 1.5C24.6947 1.5 23.9492 1.7295 23.2937 2.1015C22.4957 0.843 21.0977 0 19.5002 0C17.4227 0 15.6872 1.422 15.1712 3.3375C14.8742 3.2145 14.5682 3.114 14.2442 3.06C12.9272 2.8455 11.5922 3.2145 10.5857 4.071C9.57767 4.9275 9.00017 6.177 9.00017 7.5V20.5485L7.56767 19.212C5.75717 17.5185 2.90717 17.616 1.21517 19.4265C-0.478329 21.2385 -0.383829 24.0915 1.40867 25.773L8.09417 32.2185C10.6247 34.6575 13.9517 36 17.4647 36H28.5002C32.6357 36 36.0002 32.6355 36.0002 28.5V9C36.0002 7.6785 35.4227 6.429 34.4147 5.571ZM33.0002 28.5C33.0002 30.981 30.9812 33 28.5002 33H17.4647C14.7332 33 12.1442 31.956 10.1777 30.06L3.47567 23.5995C2.87117 23.034 2.83967 22.08 3.40517 21.474C3.67817 21.183 4.04867 21.015 4.44617 21.0015C4.87817 21.006 5.22767 21.132 5.51867 21.405L9.47567 25.098C9.91367 25.506 10.5527 25.6125 11.0972 25.377C11.6447 25.1385 12.0002 24.5985 12.0002 24.0015V7.5C12.0002 7.059 12.1937 6.642 12.5297 6.357C12.8717 6.0675 13.3097 5.949 13.7627 6.021C14.4572 6.135 15.0002 6.855 15.0002 7.6605V15C15.0002 15.828 15.6707 16.5 16.5002 16.5C17.3297 16.5 18.0002 15.828 18.0002 15V4.5C18.0002 3.6735 18.6722 3 19.5002 3C20.3282 3 21.0002 3.6735 21.0002 4.5V15C21.0002 15.828 21.6707 16.5 22.5002 16.5C23.3297 16.5 24.0002 15.828 24.0002 15V6C24.0002 5.1735 24.6722 4.5 25.5002 4.5C26.3282 4.5 27.0002 5.1735 27.0002 6V15C27.0002 15.828 27.6707 16.5 28.5002 16.5C29.3297 16.5 30.0002 15.828 30.0002 15V9.1605C30.0002 8.3535 30.5432 7.6335 31.2362 7.521C31.6892 7.449 32.1302 7.5675 32.4707 7.857C32.8067 8.142 33.0002 8.559 33.0002 9V28.5ZM28.5002 22.8C28.5002 25.395 25.1162 28.32 23.4302 29.673C22.8872 30.108 22.1117 30.108 21.5702 29.673C19.8857 28.32 16.5002 25.395 16.5002 22.8C16.5002 20.9775 17.8427 19.5 19.5002 19.5C21.1577 19.5 22.5002 20.9775 22.5002 22.8C22.5002 20.9775 23.8427 19.5 25.5002 19.5C27.1577 19.5 28.5002 20.9775 28.5002 22.8Z" fill="black"/>
</svg>
