<svg viewBox="0 0 26 26" fill="none" xmlns="http://www.w3.org/2000/svg">
<path d="M1.26824 24.7629L1.26893 24.7635L2.49098 24.9998L2.49049 25.2498C2.49131 25.2498 2.49212 25.2498 2.49294 25.2498C2.94547 25.25 3.38098 25.0771 3.71011 24.7663L3.71018 24.7664L3.71538 24.7612L21.7286 6.72474V22.0538C21.7286 23.0096 22.5022 23.7848 23.4575 23.7867C23.9225 23.7984 24.3724 23.6203 24.7035 23.2934C25.035 22.9662 25.2189 22.518 25.213 22.0522V2.83903C25.2666 2.58392 25.2629 2.31566 25.1961 2.05413C25.0394 1.44019 24.5601 0.960743 23.9463 0.803931C23.6848 0.737134 23.4166 0.733429 23.1616 0.787028H3.95354C2.99672 0.787028 2.22122 1.56293 2.22122 2.51987C2.22122 3.47681 2.99672 4.25271 3.95354 4.25271H19.2999L1.26824 22.2907C1.26795 22.291 1.26767 22.2913 1.26739 22.2916C0.936403 22.6173 0.75 23.0623 0.75 23.5268C0.75 23.9917 0.936722 24.4371 1.26824 24.7629Z" fill="white" stroke="white" stroke-width="0.5"/>
</svg>
