<svg width="196" height="59" viewBox="0 0 196 59" fill="none" xmlns="http://www.w3.org/2000/svg">
<path d="M57.78 25.51C57.58 24.87 57.43 24.11 57.33 23.23C57.25 22.35 57.23 21.47 57.27 20.59C57.31 19.71 57.41 18.98 57.57 18.4C58.03 18.28 58.45 17.97 58.83 17.47C59.21 16.95 59.4 16.09 59.4 14.89C59.4 13.87 59.29 13.08 59.07 12.52C58.87 11.94 58.64 11.53 58.38 11.29C58.12 11.05 57.89 10.92 57.69 10.9C57.49 10.24 57.35 9.46 57.27 8.56C57.21 7.64 57.22 6.73 57.3 5.83C57.4 4.93 57.57 4.19 57.81 3.61C58.75 3.73 59.81 3.83 60.99 3.91C62.17 3.97 63.38 4 64.62 4C65.86 4 67.08 3.99 68.28 3.97C69.48 3.93 70.47 3.89 71.25 3.85C70.99 4.13 70.71 4.61 70.41 5.29C70.13 5.95 69.9 6.65 69.72 7.39C69.56 8.13 69.51 8.78 69.57 9.34C70.11 7.56 71.14 6.13 72.66 5.05C74.18 3.95 76.25 3.4 78.87 3.4C80.01 3.4 80.98 3.5 81.78 3.7C82.6 3.88 83.27 4.22 83.79 4.72C84.33 5.22 84.75 5.95 85.05 6.91C85.33 7.73 85.46 8.57 85.44 9.43C85.42 10.27 85.36 11.12 85.26 11.98C85.16 12.82 85.11 13.66 85.11 14.5C85.11 15.42 85.2 16.15 85.38 16.69C85.56 17.21 85.79 17.6 86.07 17.86C86.37 18.12 86.66 18.3 86.94 18.4C87.12 18.98 87.22 19.71 87.24 20.59C87.28 21.47 87.26 22.35 87.18 23.23C87.1 24.11 86.96 24.87 86.76 25.51C86 25.43 85.08 25.33 84 25.21C82.92 25.11 81.56 25.06 79.92 25.06C78.44 25.06 77.06 25.11 75.78 25.21C74.52 25.33 73.53 25.43 72.81 25.51C72.71 24.97 72.63 24.26 72.57 23.38C72.51 22.48 72.49 21.55 72.51 20.59C72.55 19.63 72.63 18.8 72.75 18.1V13.96H71.64V18.1C71.78 18.8 71.86 19.63 71.88 20.59C71.92 21.55 71.91 22.48 71.85 23.38C71.79 24.26 71.69 24.97 71.55 25.51C71.07 25.45 70.54 25.38 69.96 25.3C69.4 25.24 68.71 25.18 67.89 25.12C67.07 25.08 66.05 25.06 64.83 25.06C63.33 25.06 61.98 25.11 60.78 25.21C59.6 25.31 58.6 25.41 57.78 25.51ZM97.248 26.02C94.848 26.02 92.948 25.71 91.548 25.09C90.168 24.47 89.178 23.66 88.578 22.66C87.978 21.66 87.678 20.58 87.678 19.42C87.678 17.66 88.298 16.23 89.538 15.13C90.778 14.03 92.758 13.47 95.478 13.45L101.838 13.39V11.8H100.188V12.61C98.148 12.69 96.138 12.77 94.158 12.85C92.178 12.93 90.208 12.9 88.248 12.76C87.748 9.64 87.798 6.62 88.398 3.7C88.978 3.7 89.678 3.71 90.498 3.73C91.338 3.75 92.218 3.78 93.138 3.82C94.078 3.84 94.998 3.86 95.898 3.88C96.798 3.9 97.598 3.92 98.298 3.94C98.038 4.54 97.888 5.14 97.848 5.74C97.828 6.34 97.918 6.92 98.118 7.48C98.218 5.82 98.848 4.67 100.008 4.03C101.168 3.39 102.808 3.07 104.928 3.07C107.668 3.07 109.768 3.47 111.228 4.27C112.688 5.05 113.658 6.22 114.138 7.78C114.378 8.52 114.478 9.32 114.438 10.18C114.418 11.02 114.358 11.84 114.258 12.64C114.158 13.44 114.108 14.16 114.108 14.8C114.108 16.02 114.298 16.89 114.678 17.41C115.078 17.91 115.498 18.24 115.938 18.4C116.118 18.98 116.218 19.71 116.238 20.59C116.278 21.47 116.258 22.35 116.178 23.23C116.098 24.11 115.958 24.87 115.758 25.51C114.878 25.71 113.958 25.84 112.998 25.9C112.038 25.98 111.258 26.02 110.658 26.02C109.138 26.02 107.948 25.84 107.088 25.48C106.228 25.12 105.798 24.46 105.798 23.5C105.798 23.16 105.858 22.8 105.978 22.42C106.118 22.04 106.278 21.63 106.458 21.19L105.678 20.8C105.318 21.68 104.818 22.52 104.178 23.32C103.558 24.12 102.688 24.77 101.568 25.27C100.468 25.77 99.028 26.02 97.248 26.02ZM100.188 17.23H101.838V15.34H100.188V17.23ZM126.445 26.02C124.345 26.02 122.535 25.57 121.015 24.67C119.495 23.75 118.325 22.43 117.505 20.71C116.685 18.99 116.275 16.92 116.275 14.5C116.275 11 117.015 8.3 118.495 6.4C119.995 4.48 122.165 3.52 125.005 3.52C126.365 3.52 127.645 3.88 128.845 4.6C130.045 5.3 131.105 6.16 132.025 7.18L132.685 6.61C132.245 6.11 131.725 5.61 131.125 5.11C130.525 4.59 129.695 4.05 128.635 3.49C128.675 2.99 128.745 2.5 128.845 2.02C128.945 1.54 129.065 1.15 129.205 0.849998C130.065 0.929998 131.195 1.03 132.595 1.15C133.995 1.25 135.425 1.3 136.885 1.3C138.305 1.3 139.595 1.26 140.755 1.18C141.935 1.08 142.945 0.989999 143.785 0.909999C143.965 1.47 144.095 2.01 144.175 2.53C144.255 3.03 144.295 3.54 144.295 4.06C144.295 5 144.195 5.93 143.995 6.85C143.815 7.75 143.625 8.73 143.425 9.79C143.245 10.83 143.155 12.05 143.155 13.45C143.155 14.71 143.245 15.68 143.425 16.36C143.605 17.04 143.835 17.53 144.115 17.83C144.395 18.11 144.685 18.31 144.985 18.43C145.165 19.11 145.275 19.9 145.315 20.8C145.355 21.7 145.335 22.58 145.255 23.44C145.175 24.28 145.025 24.97 144.805 25.51C144.005 25.41 143.145 25.32 142.225 25.24C141.305 25.16 140.315 25.11 139.255 25.09C138.235 25.07 137.375 25.07 136.675 25.09C135.975 25.11 135.375 25.14 134.875 25.18C134.375 25.22 133.885 25.26 133.405 25.3C133.645 25 133.835 24.61 133.975 24.13C134.135 23.63 134.235 23.11 134.275 22.57C134.335 22.03 134.345 21.54 134.305 21.1C134.085 21.94 133.685 22.74 133.105 23.5C132.525 24.24 131.695 24.84 130.615 25.3C129.555 25.78 128.165 26.02 126.445 26.02ZM129.415 15.97H131.035V13.18H129.415V15.97ZM155.344 26.02C152.944 26.02 151.044 25.71 149.644 25.09C148.264 24.47 147.274 23.66 146.674 22.66C146.074 21.66 145.774 20.58 145.774 19.42C145.774 17.66 146.394 16.23 147.634 15.13C148.874 14.03 150.854 13.47 153.574 13.45L159.934 13.39V11.8H158.284V12.61C156.244 12.69 154.234 12.77 152.254 12.85C150.274 12.93 148.304 12.9 146.344 12.76C145.844 9.64 145.894 6.62 146.494 3.7C147.074 3.7 147.774 3.71 148.594 3.73C149.434 3.75 150.314 3.78 151.234 3.82C152.174 3.84 153.094 3.86 153.994 3.88C154.894 3.9 155.694 3.92 156.394 3.94C156.134 4.54 155.984 5.14 155.944 5.74C155.924 6.34 156.014 6.92 156.214 7.48C156.314 5.82 156.944 4.67 158.104 4.03C159.264 3.39 160.904 3.07 163.024 3.07C165.764 3.07 167.864 3.47 169.324 4.27C170.784 5.05 171.754 6.22 172.234 7.78C172.474 8.52 172.574 9.32 172.534 10.18C172.514 11.02 172.454 11.84 172.354 12.64C172.254 13.44 172.204 14.16 172.204 14.8C172.204 16.02 172.394 16.89 172.774 17.41C173.174 17.91 173.594 18.24 174.034 18.4C174.214 18.98 174.314 19.71 174.334 20.59C174.374 21.47 174.354 22.35 174.274 23.23C174.194 24.11 174.054 24.87 173.854 25.51C172.974 25.71 172.054 25.84 171.094 25.9C170.134 25.98 169.354 26.02 168.754 26.02C167.234 26.02 166.044 25.84 165.184 25.48C164.324 25.12 163.894 24.46 163.894 23.5C163.894 23.16 163.954 22.8 164.074 22.42C164.214 22.04 164.374 21.63 164.554 21.19L163.774 20.8C163.414 21.68 162.914 22.52 162.274 23.32C161.654 24.12 160.784 24.77 159.664 25.27C158.564 25.77 157.124 26.02 155.344 26.02ZM158.284 17.23H159.934V15.34H158.284V17.23ZM181.558 26.05C177.118 26.05 174.898 24.18 174.898 20.44C174.898 18.64 175.468 17.27 176.608 16.33C177.748 15.37 179.428 14.89 181.648 14.89C186.188 14.89 188.458 16.74 188.458 20.44C188.458 22.26 187.878 23.65 186.718 24.61C185.558 25.57 183.838 26.05 181.558 26.05ZM76.26 53.69C74.5 53.69 72.9 53.66 71.46 53.6C70.04 53.54 68.65 53.47 67.29 53.39C65.93 53.33 64.5 53.3 63 53.3C61.5 53.3 59.81 53.36 57.93 53.48C57.77 53.06 57.64 52.54 57.54 51.92C57.46 51.28 57.41 50.61 57.39 49.91C57.37 49.21 57.39 48.55 57.45 47.93C57.51 47.29 57.61 46.76 57.75 46.34C58.07 46.22 58.38 46.02 58.68 45.74C58.98 45.44 59.23 44.97 59.43 44.33C59.63 43.67 59.73 42.75 59.73 41.57C59.73 40.29 59.61 39.33 59.37 38.69C59.15 38.03 58.88 37.59 58.56 37.37C58.26 37.13 57.99 37.01 57.75 37.01C57.51 36.41 57.35 35.66 57.27 34.76C57.21 33.86 57.22 32.95 57.3 32.03C57.4 31.09 57.59 30.3 57.87 29.66C59.55 29.74 61.12 29.79 62.58 29.81C64.06 29.81 65.49 29.79 66.87 29.75C68.27 29.71 69.68 29.67 71.1 29.63C72.54 29.59 74.07 29.57 75.69 29.57C77.41 29.57 78.98 29.65 80.4 29.81C81.82 29.95 83.05 30.25 84.09 30.71C85.15 31.17 85.96 31.85 86.52 32.75C87.1 33.65 87.39 34.85 87.39 36.35C87.39 37.25 87.19 38.1 86.79 38.9C86.39 39.7 85.85 40.44 85.17 41.12C86.35 41.82 87.15 42.61 87.57 43.49C88.01 44.35 88.23 45.28 88.23 46.28C88.23 47.42 88.05 48.45 87.69 49.37C87.33 50.27 86.7 51.05 85.8 51.71C84.92 52.35 83.7 52.84 82.14 53.18C80.6 53.52 78.64 53.69 76.26 53.69ZM72.09 39.5H74.31V37.88H72.09V39.5ZM72.09 45.14H74.55V43.43H72.09V45.14ZM102.934 54.05C98.134 54.05 94.504 53.03 92.044 50.99C89.604 48.95 88.384 45.93 88.384 41.93C88.384 37.53 89.624 34.3 92.104 32.24C94.584 30.18 98.244 29.15 103.084 29.15C108.244 29.15 112.024 30.17 114.424 32.21C116.824 34.23 118.024 37.21 118.024 41.15C118.024 45.61 116.754 48.88 114.214 50.96C111.674 53.02 107.914 54.05 102.934 54.05ZM102.274 43.52H104.104V39.65H102.274V43.52ZM130.708 54.02C127.728 54.02 125.438 53.63 123.838 52.85C122.238 52.05 121.198 50.87 120.718 49.31C120.498 48.61 120.388 47.84 120.388 47C120.408 46.16 120.468 45.21 120.568 44.15C120.668 43.09 120.728 41.91 120.748 40.61H118.798C118.698 40.05 118.628 39.42 118.588 38.72C118.548 38.02 118.548 37.32 118.588 36.62C118.628 35.9 118.698 35.26 118.798 34.7C119.318 34.28 119.818 33.87 120.298 33.47C120.798 33.05 121.238 32.56 121.618 32C121.998 31.44 122.258 30.72 122.398 29.84C123.118 29.94 123.988 30.01 125.008 30.05C126.048 30.09 127.148 30.11 128.308 30.11C129.488 30.09 130.638 30.06 131.758 30.02C132.878 29.96 133.868 29.89 134.728 29.81C134.848 30.19 134.948 30.57 135.028 30.95C135.108 31.33 135.168 31.7 135.208 32.06H141.748C141.848 32.42 141.918 32.96 141.958 33.68C141.998 34.4 141.998 35.16 141.958 35.96C141.938 36.74 141.868 37.41 141.748 37.97L133.468 38V44.27H134.338L134.368 39.08C134.808 38.92 135.348 38.8 135.988 38.72C136.648 38.62 137.338 38.57 138.058 38.57C138.778 38.57 139.468 38.62 140.128 38.72C140.788 38.8 141.348 38.92 141.808 39.08C141.868 39.18 141.948 39.52 142.048 40.1C142.148 40.66 142.228 41.35 142.288 42.17C142.368 42.97 142.408 43.78 142.408 44.6C142.408 45.48 142.308 46.37 142.108 47.27C141.928 48.17 141.598 49.03 141.118 49.85C140.638 50.65 139.958 51.37 139.078 52.01C138.198 52.63 137.068 53.12 135.688 53.48C134.328 53.84 132.668 54.02 130.708 54.02Z" fill="#2D6FDB"/>
<g clip-path="url(#clip0_2906_15066)">
<path d="M17.2294 22.5471C13.9037 22.5471 11.2075 25.2432 11.2075 28.569V44.1814C11.2075 47.5073 13.9037 50.2034 17.2294 50.2034H32.7303C36.0561 50.2034 38.7523 47.5073 38.7523 44.1814V28.569C38.7523 25.2432 36.0561 22.5471 32.7303 22.5471H17.2294Z" fill="#1F778F"/>
<path d="M11.2075 28.569C11.2075 25.2432 13.9037 22.5471 17.2294 22.5471ZM17.2294 50.2034C13.9037 50.2034 11.2075 47.5073 11.2075 44.1814ZM38.7523 44.1814C38.7523 47.5073 36.0561 50.2034 32.7303 50.2034ZM32.7303 22.5471C36.0561 22.5471 38.7523 25.2432 38.7523 28.569ZM17.2294 23.9434H32.7303C35.285 23.9434 37.356 26.0144 37.356 28.569V44.1814C37.356 46.7362 35.285 48.8071 32.7303 48.8071H17.2294C14.6747 48.8071 12.6038 46.7362 12.6038 44.1814V28.569C12.6038 26.0144 14.6747 23.9434 17.2294 23.9434Z" fill="#DFF4FC"/>
<path d="M11.2075 28.569C11.2075 25.2432 13.9037 22.5471 17.2294 22.5471M17.2294 50.2034C13.9037 50.2034 11.2075 47.5073 11.2075 44.1814M38.7523 44.1814C38.7523 47.5073 36.0561 50.2034 32.7303 50.2034M32.7303 22.5471C36.0561 22.5471 38.7523 25.2432 38.7523 28.569M17.2294 23.9434H32.7303C35.285 23.9434 37.356 26.0144 37.356 28.569V44.1814C37.356 46.7362 35.285 48.8071 32.7303 48.8071H17.2294C14.6747 48.8071 12.6038 46.7362 12.6038 44.1814V28.569C12.6038 26.0144 14.6747 23.9434 17.2294 23.9434Z" stroke="black" stroke-width="0.0390625"/>
<path d="M19.181 36.6564C21.2455 36.6564 22.9191 34.9828 22.9191 32.9183C22.9191 30.8538 21.2455 29.1802 19.181 29.1802C17.1165 29.1802 15.4429 30.8538 15.4429 32.9183C15.4429 34.9828 17.1165 36.6564 19.181 36.6564Z" fill="#2A758F" stroke="black" stroke-width="0.0390625"/>
<path d="M19.1809 35.3716C20.5359 35.3716 21.6343 34.2732 21.6343 32.9182C21.6343 31.5633 20.5359 30.4648 19.1809 30.4648C17.826 30.4648 16.7275 31.5633 16.7275 32.9182C16.7275 34.2732 17.826 35.3716 19.1809 35.3716Z" fill="white"/>
<path d="M30.834 36.6564C32.8985 36.6564 34.5721 34.9828 34.5721 32.9183C34.5721 30.8538 32.8985 29.1802 30.834 29.1802C28.7696 29.1802 27.0959 30.8538 27.0959 32.9183C27.0959 34.9828 28.7696 36.6564 30.834 36.6564Z" fill="#2A758F" stroke="black" stroke-width="0.0390625"/>
<path d="M30.8342 35.3716C32.1892 35.3716 33.2876 34.2732 33.2876 32.9182C33.2876 31.5633 32.1892 30.4648 30.8342 30.4648C29.4793 30.4648 28.3809 31.5633 28.3809 32.9182C28.3809 34.2732 29.4793 35.3716 30.8342 35.3716Z" fill="white"/>
<path d="M11.1257 32.4189H9.44955C9.40554 32.4189 9.36987 32.4546 9.36987 32.4986V41.4791C9.36987 41.5231 9.40554 41.5588 9.44955 41.5588H11.1257C11.1697 41.5588 11.2054 41.5231 11.2054 41.4791V32.4986C11.2054 32.4546 11.1697 32.4189 11.1257 32.4189Z" fill="#F90000" stroke="black" stroke-width="0.0390625"/>
<path d="M40.176 32.4189H38.4998C38.4558 32.4189 38.4202 32.4546 38.4202 32.4986V41.4791C38.4202 41.5231 38.4558 41.5588 38.4998 41.5588H40.176C40.22 41.5588 40.2556 41.5231 40.2556 41.4791V32.4986C40.2556 32.4546 40.22 32.4189 40.176 32.4189Z" fill="#F90000" stroke="black" stroke-width="0.0390625"/>
<path d="M19.4561 43.5879L19.4104 43.5952L19.4441 43.627C19.9071 44.0628 20.5309 44.3298 21.217 44.3298H21.2399V44.3071V43.1817V43.1503L21.2101 43.16C20.6106 43.3546 20.0231 43.4972 19.4561 43.5879ZM22.045 42.8579L22.0307 42.8636V42.879V44.3071V44.3298H22.0534H24.6183H24.6411V44.3071V41.5609V41.5195L24.6062 41.5417C23.7528 42.0818 22.8914 42.5202 22.045 42.8579Z" fill="white" stroke="black" stroke-width="0.390625"/>
<path d="M30.6154 43.5879L30.6612 43.5952L30.6274 43.627C30.1643 44.0628 29.5406 44.3298 28.8544 44.3298H28.8317V44.3071V43.1817V43.1503L28.8614 43.16C29.4608 43.3546 30.0485 43.4972 30.6154 43.5879ZM28.0265 42.8579L28.0408 42.8636V42.879V44.3071V44.3298H28.0181H25.4531H25.4304V44.3071V41.5609V41.5195L25.4654 41.5417C26.3186 42.0818 27.1802 42.5202 28.0265 42.8579Z" fill="white" stroke="black" stroke-width="0.390625"/>
<path fill-rule="evenodd" clip-rule="evenodd" d="M25.0184 39.1614C24.9824 39.0941 24.9386 39.0303 24.8856 38.9704C23.0714 37.2461 20.5169 38.6959 18.4512 39.8683C16.676 40.8758 15.2617 41.6785 14.9884 40.0855C14.7998 38.9864 15.9084 38.6357 16.6611 38.9704C16.0757 38.5243 15.0441 38.4964 14.4308 39.0539C13.8175 39.6116 13.455 40.8383 14.152 42.065C15.7927 44.679 20.5399 44.5747 25.0184 41.6691C29.497 44.5747 34.2442 44.679 35.8849 42.065C36.5818 40.8383 36.2195 39.6116 35.6061 39.0539C34.9928 38.4964 33.9612 38.5243 33.3758 38.9704C34.1285 38.6357 35.2371 38.9864 35.0485 40.0855C34.7752 41.6785 33.361 40.8758 31.5857 39.8683C29.52 38.6959 26.9656 37.2461 25.1514 38.9704C25.0983 39.0303 25.0545 39.0941 25.0184 39.1614Z" fill="black"/>
<mask id="mask0_2906_15066" style="mask-type:alpha" maskUnits="userSpaceOnUse" x="12" y="3" width="26" height="24">
<path d="M18.4041 3.0896H30.8964C31.3529 3.0896 31.7492 3.40457 31.8522 3.84939L37.0205 26.1691H12.8269L17.4433 3.87181C17.5376 3.41628 17.9388 3.0896 18.4041 3.0896Z" fill="#D9D9D9" stroke="black" stroke-width="0.0390625"/>
</mask>
<g mask="url(#mask0_2906_15066)">
<path d="M18.4041 3.0896H30.8964C31.3529 3.0896 31.7492 3.40457 31.8522 3.84939L37.0205 26.1691H12.8269L17.4433 3.87181C17.5376 3.41628 17.9388 3.0896 18.4041 3.0896Z" fill="#FFCE00" stroke="black" stroke-width="0.0390625"/>
<path d="M43.0987 14.1855H6.3584V17.9726H43.0987V14.1855Z" fill="#F90000" stroke="black" stroke-width="0.0390625"/>
<path d="M43.0987 15.1895H6.3584V16.9692H43.0987V15.1895Z" fill="#00AA0C" stroke="black" stroke-width="0.0390625"/>
<path d="M43.0987 15.8027H6.3584V16.3558H43.0987V15.8027Z" fill="white" stroke="black" stroke-width="0.0390625"/>
</g>
<path d="M0.0363428 19.8733H49.8674C49.8863 19.8733 49.9016 19.8887 49.9016 19.9074V26.3422C49.9016 27.0475 49.3299 27.6192 48.6245 27.6192H1.27924C0.57395 27.6192 0.00219727 27.0475 0.00219727 26.3422V19.9074C0.00219727 19.8887 0.0174848 19.8733 0.0363428 19.8733Z" fill="#FFCE00" stroke="black" stroke-width="0.0390625"/>
<mask id="mask1_2906_15066" style="mask-type:alpha" maskUnits="userSpaceOnUse" x="-1" y="19" width="51" height="9">
<path d="M0.0363428 19.8733H49.8674C49.8863 19.8733 49.9016 19.8887 49.9016 19.9074V26.3422C49.9016 27.0475 49.3299 27.6192 48.6245 27.6192H1.27924C0.57395 27.6192 0.00219727 27.0475 0.00219727 26.3422V19.9074C0.00219727 19.8887 0.0174848 19.8733 0.0363428 19.8733Z" fill="#D9D9D9" stroke="black" stroke-width="0.0390625"/>
</mask>
<g mask="url(#mask1_2906_15066)">
<path d="M64.0666 21.1536H-11.7651V23.4954H64.0666V21.1536Z" fill="#00AA0C"/>
<path d="M64.0666 19.8711H-11.7651V21.2093H64.0666V19.8711Z" fill="#F90000"/>
<path d="M0.895043 23.4955L2.24712 21.1536H-0.457031L0.895043 23.4955Z" fill="#2315AA"/>
<path d="M6.24758 23.4955L7.59966 21.1536H4.89551L6.24758 23.4955Z" fill="#2315AA"/>
<path d="M11.6004 23.4955L12.9524 21.1536H10.2483L11.6004 23.4955Z" fill="#2315AA"/>
<path d="M16.9534 23.4955L18.3055 21.1536H15.6013L16.9534 23.4955Z" fill="#2315AA"/>
<path d="M22.3062 23.4955L23.6583 21.1536H20.9541L22.3062 23.4955Z" fill="#2315AA"/>
<path d="M27.6592 23.4955L29.0112 21.1536H26.3071L27.6592 23.4955Z" fill="#2315AA"/>
<path d="M33.0119 23.4955L34.364 21.1536H31.6599L33.0119 23.4955Z" fill="#2315AA"/>
<path d="M38.3645 23.4955L39.7166 21.1536H37.0125L38.3645 23.4955Z" fill="#2315AA"/>
<path d="M43.7176 23.4955L45.0697 21.1536H42.3655L43.7176 23.4955Z" fill="#2315AA"/>
<path d="M49.0704 23.4955L50.4223 21.1536H47.7183L49.0704 23.4955Z" fill="#2315AA"/>
<path d="M3.58254 23.4955L4.93462 21.1536H2.23047L3.58254 23.4955Z" fill="#2315AA"/>
<path d="M8.93508 23.4955L10.2872 21.1536H7.58301L8.93508 23.4955Z" fill="#2315AA"/>
<path d="M14.2881 23.4955L15.6402 21.1536H12.936L14.2881 23.4955Z" fill="#2315AA"/>
<path d="M19.6409 23.4955L20.993 21.1536H18.2888L19.6409 23.4955Z" fill="#2315AA"/>
<path d="M24.9937 23.4955L26.3457 21.1536H23.6416L24.9937 23.4955Z" fill="#2315AA"/>
<path d="M30.3467 23.4955L31.6988 21.1536H28.9946L30.3467 23.4955Z" fill="#2315AA"/>
<path d="M35.6993 23.4955L37.0514 21.1536H34.3472L35.6993 23.4955Z" fill="#2315AA"/>
<path d="M41.0525 23.4955L42.4045 21.1536H39.7004L41.0525 23.4955Z" fill="#2315AA"/>
<path d="M46.405 23.4955L47.7571 21.1536H45.053L46.405 23.4955Z" fill="#2315AA"/>
<path d="M2.20216 22.3245C2.52551 22.3245 2.78763 22.0624 2.78763 21.739C2.78763 21.4157 2.52551 21.1536 2.20216 21.1536C1.87882 21.1536 1.6167 21.4157 1.6167 21.739C1.6167 22.0624 1.87882 22.3245 2.20216 22.3245Z" fill="white"/>
<path d="M7.55519 22.3245C7.87853 22.3245 8.14066 22.0624 8.14066 21.739C8.14066 21.4157 7.87853 21.1536 7.55519 21.1536C7.23185 21.1536 6.96973 21.4157 6.96973 21.739C6.96973 22.0624 7.23185 22.3245 7.55519 22.3245Z" fill="white"/>
<path d="M12.908 22.3245C13.2313 22.3245 13.4934 22.0624 13.4934 21.739C13.4934 21.4157 13.2313 21.1536 12.908 21.1536C12.5846 21.1536 12.3225 21.4157 12.3225 21.739C12.3225 22.0624 12.5846 22.3245 12.908 22.3245Z" fill="white"/>
<path d="M18.261 22.3245C18.5843 22.3245 18.8465 22.0624 18.8465 21.739C18.8465 21.4157 18.5843 21.1536 18.261 21.1536C17.9377 21.1536 17.6755 21.4157 17.6755 21.739C17.6755 22.0624 17.9377 22.3245 18.261 22.3245Z" fill="white"/>
<path d="M23.6135 22.3245C23.9369 22.3245 24.199 22.0624 24.199 21.739C24.199 21.4157 23.9369 21.1536 23.6135 21.1536C23.2902 21.1536 23.0281 21.4157 23.0281 21.739C23.0281 22.0624 23.2902 22.3245 23.6135 22.3245Z" fill="white"/>
<path d="M28.9663 22.3245C29.2897 22.3245 29.5518 22.0624 29.5518 21.739C29.5518 21.4157 29.2897 21.1536 28.9663 21.1536C28.643 21.1536 28.3809 21.4157 28.3809 21.739C28.3809 22.0624 28.643 22.3245 28.9663 22.3245Z" fill="white"/>
<path d="M34.3196 22.3245C34.6429 22.3245 34.9051 22.0624 34.9051 21.739C34.9051 21.4157 34.6429 21.1536 34.3196 21.1536C33.9963 21.1536 33.7341 21.4157 33.7341 21.739C33.7341 22.0624 33.9963 22.3245 34.3196 22.3245Z" fill="white"/>
<path d="M39.6721 22.3245C39.9955 22.3245 40.2576 22.0624 40.2576 21.739C40.2576 21.4157 39.9955 21.1536 39.6721 21.1536C39.3488 21.1536 39.0867 21.4157 39.0867 21.739C39.0867 22.0624 39.3488 22.3245 39.6721 22.3245Z" fill="white"/>
<path d="M45.0247 22.3245C45.348 22.3245 45.6101 22.0624 45.6101 21.739C45.6101 21.4157 45.348 21.1536 45.0247 21.1536C44.7013 21.1536 44.4392 21.4157 44.4392 21.739C44.4392 22.0624 44.7013 22.3245 45.0247 22.3245Z" fill="white"/>
<path d="M50.3779 22.3245C50.7013 22.3245 50.9634 22.0624 50.9634 21.739C50.9634 21.4157 50.7013 21.1536 50.3779 21.1536C50.0546 21.1536 49.7925 21.4157 49.7925 21.739C49.7925 22.0624 50.0546 22.3245 50.3779 22.3245Z" fill="white"/>
<path d="M-0.473861 22.3245C-0.150518 22.3245 0.111604 22.0624 0.111604 21.739C0.111604 21.4157 -0.150518 21.1536 -0.473861 21.1536C-0.797205 21.1536 -1.05933 21.4157 -1.05933 21.739C-1.05933 22.0624 -0.797205 22.3245 -0.473861 22.3245Z" fill="white"/>
<path d="M4.87868 22.3245C5.20202 22.3245 5.46414 22.0624 5.46414 21.739C5.46414 21.4157 5.20202 21.1536 4.87868 21.1536C4.55533 21.1536 4.29321 21.4157 4.29321 21.739C4.29321 22.0624 4.55533 22.3245 4.87868 22.3245Z" fill="white"/>
<path d="M10.2315 22.3245C10.5548 22.3245 10.8169 22.0624 10.8169 21.739C10.8169 21.4157 10.5548 21.1536 10.2315 21.1536C9.90812 21.1536 9.646 21.4157 9.646 21.739C9.646 22.0624 9.90812 22.3245 10.2315 22.3245Z" fill="white"/>
<path d="M15.5845 22.3245C15.9078 22.3245 16.17 22.0624 16.17 21.739C16.17 21.4157 15.9078 21.1536 15.5845 21.1536C15.2611 21.1536 14.999 21.4157 14.999 21.739C14.999 22.0624 15.2611 22.3245 15.5845 22.3245Z" fill="white"/>
<path d="M20.937 22.3245C21.2604 22.3245 21.5225 22.0624 21.5225 21.739C21.5225 21.4157 21.2604 21.1536 20.937 21.1536C20.6137 21.1536 20.3516 21.4157 20.3516 21.739C20.3516 22.0624 20.6137 22.3245 20.937 22.3245Z" fill="white"/>
<path d="M26.2903 22.3245C26.6136 22.3245 26.8758 22.0624 26.8758 21.739C26.8758 21.4157 26.6136 21.1536 26.2903 21.1536C25.967 21.1536 25.7048 21.4157 25.7048 21.739C25.7048 22.0624 25.967 22.3245 26.2903 22.3245Z" fill="white"/>
<path d="M31.6428 22.3245C31.9662 22.3245 32.2283 22.0624 32.2283 21.739C32.2283 21.4157 31.9662 21.1536 31.6428 21.1536C31.3195 21.1536 31.0574 21.4157 31.0574 21.739C31.0574 22.0624 31.3195 22.3245 31.6428 22.3245Z" fill="white"/>
<path d="M36.9956 22.3245C37.319 22.3245 37.5811 22.0624 37.5811 21.739C37.5811 21.4157 37.319 21.1536 36.9956 21.1536C36.6723 21.1536 36.4102 21.4157 36.4102 21.739C36.4102 22.0624 36.6723 22.3245 36.9956 22.3245Z" fill="white"/>
<path d="M42.3487 22.3245C42.672 22.3245 42.9341 22.0624 42.9341 21.739C42.9341 21.4157 42.672 21.1536 42.3487 21.1536C42.0253 21.1536 41.7632 21.4157 41.7632 21.739C41.7632 22.0624 42.0253 22.3245 42.3487 22.3245Z" fill="white"/>
<path d="M47.7012 22.3245C48.0245 22.3245 48.2867 22.0624 48.2867 21.739C48.2867 21.4157 48.0245 21.1536 47.7012 21.1536C47.3778 21.1536 47.1157 21.4157 47.1157 21.739C47.1157 22.0624 47.3778 22.3245 47.7012 22.3245Z" fill="white"/>
</g>
</g>
<defs>
<clipPath id="clip0_2906_15066">
<rect width="50" height="47.2028" fill="white" transform="translate(0 3)"/>
</clipPath>
</defs>
</svg>
