<?xml version="1.0" standalone="no"?>
<!DOCTYPE svg PUBLIC "-//W3C//DTD SVG 20010904//EN"
 "http://www.w3.org/TR/2001/REC-SVG-20010904/DTD/svg10.dtd">
<svg version="1.0" xmlns="http://www.w3.org/2000/svg"
 width="429.000000pt" height="429.000000pt" viewBox="0 0 429.000000 429.000000"
 preserveAspectRatio="xMidYMid meet">
<metadata>
Created by potrace 1.14, written by Peter Selinger 2001-2017
</metadata>
<g transform="translate(0.000000,429.000000) scale(0.100000,-0.100000)"
fill="#000000" stroke="none">
<path d="M1558 4157 c-19 -4 -40 -17 -47 -28 -7 -12 -30 -109 -52 -217 -23
-109 -42 -204 -44 -212 -11 -49 -48 -226 -60 -285 -8 -38 -16 -81 -19 -94 -13
-59 -45 -218 -49 -241 -7 -40 -58 -281 -68 -321 l-9 -37 -588 0 c-323 0 -595
-1 -604 -1 -17 -1 -18 -22 -18 -287 0 -314 4 -341 58 -363 19 -8 168 -12 467
-13 l440 -1 0 -203 c0 -129 -4 -204 -10 -205 -5 -1 -41 -2 -80 -3 l-70 -1 0
-390 0 -390 78 -3 c76 -3 77 -3 78 -30 0 -15 0 -79 1 -142 1 -205 55 -337 180
-444 57 -49 169 -104 240 -116 64 -12 1505 -9 1550 3 121 32 248 124 308 222
70 113 86 183 85 372 l0 133 61 0 c51 0 62 3 66 18 3 14 2 702 -1 753 -1 13
-12 16 -57 15 -30 -1 -58 3 -62 9 -4 5 -7 98 -7 206 l-1 195 436 2 c298 1 444
6 463 13 55 23 58 43 59 356 0 156 -3 287 -6 290 -3 3 -279 5 -615 5 l-609 1
-32 136 c-17 75 -39 172 -50 216 -23 98 -41 175 -45 195 -2 8 -31 134 -65 280
-34 146 -63 272 -65 280 -2 8 -15 67 -30 130 -15 63 -30 125 -32 137 -3 12
-15 31 -28 43 l-24 22 -544 2 c-300 0 -560 -3 -579 -7z"/>
</g>
</svg>
